          The Fantastic Water Babes 2010 DVDRip XviD fasamoo LKRG
 

RIPPER                           : fasamoo
Format                           : AVI
Format/Info                      : Audio Video Interleave
File size                        : 700 MiB
Duration                         : 1h 28mn
Overall bit rate                 : 1 103 Kbps
Writing application              : VirtualDubMod 1.5.4.1 (build 2178/release)
Writing library                  : VirtualDubMod build 2178/release
Language                         : Chinese
Subtitles                        : English(Hardcoded)
Genre                            : Comedy

Video
ID                               : 0
Format                           : MPEG-4 Visual
Format profile                   : Advanced Simple@L5
Format settings, BVOP            : Yes
Format settings, QPel            : No
Format settings, GMC             : No warppoints
Format settings, Matrix          : Custom
Codec ID                         : XVID
Codec ID/Hint                    : XviD
Duration                         : 1h 28mn
Bit rate                         : 976 Kbps
Width                            : 608 pixels
Height                           : 304 pixels
Display aspect ratio             : 2.000
Frame rate                       : 25.000 fps
Color space                      : YUV
Chroma subsampling               : 4:2:0
Bit depth                        : 8 bits
Scan type                        : Progressive
Bits/(Pixel*Frame)               : 0.211
Stream size                      : 619 MiB (88%)
Writing library                  : XviD 1.2.1 (UTC 2008-12-04)

Audio
ID                               : 1
Format                           : MPEG Audio
Format version                   : Version 1
Format profile                   : Layer 3
Mode                             : Joint stereo
Mode extension                   : MS Stereo
Codec ID                         : 55
Codec ID/Hint                    : MP3
Duration                         : 1h 28mn
Bit rate mode                    : Variable
Bit rate                         : 114 Kbps
Nominal bit rate                 : 128 Kbps
Channel(s)                       : 2 channels
Sampling rate                    : 48.0 KHz
Stream size                      : 72.3 MiB (10%)
Alignment                        : Aligned on interleaves
Interleave, duration             : 24 ms (0.60 video frame)
Interleave, preload duration     : 453 ms
Writing library                  : LAME3.98r
Encoding settings                : -m j -V 4 -q 2 -lowpass 17 --abr 128

                                 PLOT

In this engaging action comedy about the quest for love and honour, Alex, Hong Kong’s champion swimmer, is kidnapped by beautiful and cocky swimmer Jill and her team-mates in order that he can train her to win a duel against her rival in swimming and in love. All hell breaks loose when hate-at-first-sight inadvertently becomes something else..
  







                                 IMBD
                     
                    http://www.imdb.com/title/tt1500694/
 
http://leetleech.org/images/80534277721515215600.png 
http://leetleech.org/images/64807497263621084009.png 
http://leetleech.org/images/18228854651240958867.png 
http://leetleech.org/images/00782834971186875245.png 
http://leetleech.org/images/49575138494426487942.png